<svg xmlns="http://www.w3.org/2000/svg" viewBox="0 0 645 549" width="645" height="549" role="img" aria-label="Skill Radar" font-family="ui-sans-serif,-apple-system,Segoe UI,Helvetica,Arial,sans-serif"><text x="322.5" y="25" text-anchor="middle" font-size="15" font-weight="700" fill="#e6edf3">Skill Radar</text><g transform="translate(346.8,289.0)"><polygon points="0.0,-212.0 149.9,-149.9 212.0,0.0 149.9,149.9 0.0,212.0 -149.9,149.9 -212.0,0.0 -149.9,-149.9" fill="none" stroke="#30363d" stroke-width="1" opacity="0.85"/><polygon points="0.0,-159.0 112.4,-112.4 159.0,0.0 112.4,112.4 0.0,159.0 -112.4,112.4 -159.0,0.0 -112.4,-112.4" fill="none" stroke="#30363d" stroke-width="1" opacity="0.72"/><polygon points="0.0,-106.0 75.0,-75.0 106.0,0.0 75.0,75.0 0.0,106.0 -75.0,75.0 -106.0,0.0 -75.0,-75.0" fill="none" stroke="#30363d" stroke-width="1" opacity="0.60"/><polygon points="0.0,-53.0 37.5,-37.5 53.0,0.0 37.5,37.5 0.0,53.0 -37.5,37.5 -53.0,0.0 -37.5,-37.5" fill="none" stroke="#30363d" stroke-width="1" opacity="0.47"/><line x1="0" y1="0" x2="0.0" y2="-212.0" stroke="#21262d" stroke-width="1"/><line x1="0" y1="0" x2="149.9" y2="-149.9" stroke="#21262d" stroke-width="1"/><line x1="0" y1="0" x2="212.0" y2="0.0" stroke="#21262d" stroke-width="1"/><line x1="0" y1="0" x2="149.9" y2="149.9" stroke="#21262d" stroke-width="1"/><line x1="0" y1="0" x2="0.0" y2="212.0" stroke="#21262d" stroke-width="1"/><line x1="0" y1="0" x2="-149.9" y2="149.9" stroke="#21262d" stroke-width="1"/><line x1="0" y1="0" x2="-212.0" y2="0.0" stroke="#21262d" stroke-width="1"/><line x1="0" y1="0" x2="-149.9" y2="-149.9" stroke="#21262d" stroke-width="1"/><g><animateTransform attributeName="transform" type="scale" values="0.04;1" dur="1.1s" calcMode="spline" keyTimes="0;1" keySplines="0.22 1 0.36 1" fill="freeze"/><polygon points="0.0,-180.2 116.9,-116.9 169.6,0.0 112.4,112.4 0.0,152.6 -104.9,104.9 -127.2,0.0 -101.9,-101.9" fill="#39d353" fill-opacity="0.22" stroke="#3fb950" stroke-width="2.5" stroke-linejoin="round"/><circle cx="0.0" cy="-180.2" r="3.6" fill="#7ee787" stroke="#3fb950" stroke-width="1.2"/><circle cx="116.9" cy="-116.9" r="3.6" fill="#7ee787" stroke="#3fb950" stroke-width="1.2"/><circle cx="169.6" cy="0.0" r="3.6" fill="#7ee787" stroke="#3fb950" stroke-width="1.2"/><circle cx="112.4" cy="112.4" r="3.6" fill="#7ee787" stroke="#3fb950" stroke-width="1.2"/><circle cx="0.0" cy="152.6" r="3.6" fill="#7ee787" stroke="#3fb950" stroke-width="1.2"/><circle cx="-104.9" cy="104.9" r="3.6" fill="#7ee787" stroke="#3fb950" stroke-width="1.2"/><circle cx="-127.2" cy="0.0" r="3.6" fill="#7ee787" stroke="#3fb950" stroke-width="1.2"/><circle cx="-101.9" cy="-101.9" r="3.6" fill="#7ee787" stroke="#3fb950" stroke-width="1.2"/></g><text x="0.0" y="-237.0" text-anchor="middle" font-size="13" font-weight="600" fill="#c9d1d9">Python</text><text x="164.0" y="-169.0" text-anchor="start" font-size="13" font-weight="600" fill="#c9d1d9">Scikit-learn</text><text x="232.0" y="4.0" text-anchor="start" font-size="13" font-weight="600" fill="#c9d1d9">FastAPI</text><text x="164.0" y="178.0" text-anchor="start" font-size="13" font-weight="600" fill="#c9d1d9">Next.js/React</text><text x="0.0" y="246.0" text-anchor="middle" font-size="13" font-weight="600" fill="#c9d1d9">Node/Express</text><text x="-164.0" y="178.0" text-anchor="end" font-size="13" font-weight="600" fill="#c9d1d9">SQL/MongoDB</text><text x="-232.0" y="4.0" text-anchor="end" font-size="13" font-weight="600" fill="#c9d1d9">Deep Learning</text><text x="-164.0" y="-169.0" text-anchor="end" font-size="13" font-weight="600" fill="#c9d1d9">DSA (C++)</text></g></svg>